HIERARCHY
ROOT Hips
{
  OFFSET 50.2091 100.557 11.3008
  CHANNELS 6 Xposition Yposition Zposition Zrotation Xrotation Yrotation
  JOINT spine
  {
    OFFSET 0 8.81704 0.507024
    CHANNELS 3 Zrotation Xrotation Yrotation
    JOINT spine1
    {
      OFFSET 0 10.7766 0
      CHANNELS 3 Zrotation Xrotation Yrotation
      JOINT spine2
      {
        OFFSET 0 10.3259 0
        CHANNELS 3 Zrotation Xrotation Yrotation
        JOINT Neck
        {
          OFFSET 0 26.511 1.26395
          CHANNELS 3 Zrotation Xrotation Yrotation
          JOINT Head
          {
            OFFSET 0 8.00966 0
            CHANNELS 3 Zrotation Xrotation Yrotation
            End Site
            {
              OFFSET 0 19.3879 -6.39386
            }
          }
        }
        JOINT RightShoulder
        {
          OFFSET -4.34795 11.1512 -0.605422
          CHANNELS 3 Zrotation Xrotation Yrotation
          JOINT RightArm
          {
            OFFSET 0 14.6258 0
            CHANNELS 3 Zrotation Xrotation Yrotation
            JOINT RightArmRoll
            {
              OFFSET 0 7.3834 0
              CHANNELS 3 Zrotation Xrotation Yrotation
              JOINT RightForeArm
              {
                OFFSET 0 21.5052 0
                CHANNELS 3 Zrotation Xrotation Yrotation
                JOINT RightForeArmRoll
                {
                  OFFSET 0 8.28532 0
                  CHANNELS 3 Zrotation Xrotation Yrotation
                  JOINT RightHand
                  {
                    OFFSET 0 16.6268 0
                    CHANNELS 3 Zrotation Xrotation Yrotation
                    End Site
                    {
                      OFFSET 0 0 0
                    }
                  }
                }
              }
            }
          }
        }
        JOINT LeftShoulder
        {
          OFFSET 4.34795 11.1512 -0.605422
          CHANNELS 3 Zrotation Xrotation Yrotation
          JOINT LeftArm
          {
            OFFSET 0 14.6258 0
            CHANNELS 3 Zrotation Xrotation Yrotation
            JOINT LeftArmRoll
            {
              OFFSET 0 7.3834 0
              CHANNELS 3 Zrotation Xrotation Yrotation
              JOINT LeftForeArm
              {
                OFFSET 0 21.5052 0
                CHANNELS 3 Zrotation Xrotation Yrotation
                JOINT LeftForeArmRoll
                {
                  OFFSET 0 8.28532 0
                  CHANNELS 3 Zrotation Xrotation Yrotation
                  JOINT LeftHand
                  {
                    OFFSET 0 16.6268 0
                    CHANNELS 3 Zrotation Xrotation Yrotation
                    End Site
                    {
                      OFFSET 0 0 0
                    }
                  }
                }
              }
            }
          }
        }
      }
    }
  }
  JOINT RightUpLeg
  {
    OFFSET -7.8151 -1.43309 -1.20217
    CHANNELS 3 Zrotation Xrotation Yrotation
    JOINT RightUpLegRoll
    {
      OFFSET 0 19.4959 0
      CHANNELS 3 Zrotation Xrotation Yrotation
      JOINT RightLeg
      {
        OFFSET 0 -24.1427 0
        CHANNELS 3 Zrotation Xrotation Yrotation
        JOINT RightLegRoll
        {
          OFFSET 0 24.2217 0
          CHANNELS 3 Zrotation Xrotation Yrotation
          JOINT RightFoot
          {
            OFFSET 0 20.1605 0
            CHANNELS 3 Zrotation Xrotation Yrotation
            JOINT RightToeBase
            {
              OFFSET 0 16.8532 0
              CHANNELS 3 Zrotation Xrotation Yrotation
              End Site
              {
                OFFSET 0.00714343 8.16187 -0.940781
              }
            }
          }
        }
      }
    }
  }
  JOINT LeftUpLeg
  {
    OFFSET 7.8151 -1.43309 -1.20217
    CHANNELS 3 Zrotation Xrotation Yrotation
    JOINT LeftUpLegRoll
    {
      OFFSET 0 19.496 0
      CHANNELS 3 Zrotation Xrotation Yrotation
      JOINT LeftLeg
      {
        OFFSET 0 24.1426 0
        CHANNELS 3 Zrotation Xrotation Yrotation
        JOINT LeftLegRoll
        {
          OFFSET 0 24.4456 0
          CHANNELS 3 Zrotation Xrotation Yrotation
          JOINT LeftFoot
          {
            OFFSET 0 19.9366 0
            CHANNELS 3 Zrotation Xrotation Yrotation
            JOINT LeftToeBase
            {
              OFFSET 0 16.8532 0
              CHANNELS 3 Zrotation Xrotation Yrotation
              End Site
              {
                OFFSET -0.0320138 8.16187 -0.94078
              }
            }
          }
        }
      }
    }
  }
}
MOTION
Frames: 10
Frame Time: 0.00208333
50.8652 100.613 10.8736 -0.883704 -1.81768 2.7288 0.252222 -2.21989 -0.157026 0.499136 -0.437059 -0.327381 0.503207 1.20797 -0.335858 3.55601 29.8792 0.519353 -8.50903 -7.68558 0.377647 69.6715 -4.53182 -3.55191 105.449 13.4627 17.7708 -1.85234e-006 -1.05794e-005 1.12802e-006 10.6288 2.92805 -0.644316 -7.78306e-007 3.81726e-006 -3.00891 8.02889 -4.95147 0.697686 -59.6421 -3.29936 2.14004 -113.647 5.89817 -10.5368 3.07745e-006 2.48628e-006 1.14015e-005 -8.37328 6.41765 1.17449 1.42611e-005 4.70561e-006 3.00755 -8.02908 -4.95144 -0.697658 179.927 0.200144 -1.38538 180 7.01555e-015 178.958 178.686 5.4774 179.702 2.31802e-006 -1.13788e-006 0.0161669 -18.1894 67.3911 19.0526 8.13649 25.2327 -3.48774 -176.806 0.562048 2.24771 4.54188e-006 -4.6773e-006 -1.07983 -2.06834 -7.99074 0.17564 -3.99226e-006 -3.03929e-006 -0.145866 19.7022 69.2653 -20.6432 -8.13649 25.2327 3.48774 
50.8652 100.612 10.8604 -0.884246 -1.81169 2.72919 0.251764 -2.22202 -0.156784 0.498124 -0.440592 -0.32761 0.502194 1.20443 -0.336067 3.55788 29.8722 0.522349 -8.51214 -7.67238 0.381574 69.6656 -4.53089 -3.55112 105.46 13.4334 17.7946 -1.85234e-006 -1.05794e-005 1.12802e-006 10.6132 2.95833 -0.648365 -7.78306e-007 3.81726e-006 -3.00891 8.02889 -4.95147 0.697686 -59.634 -3.30728 2.14423 -113.656 5.87167 -10.561 3.07745e-006 2.48628e-006 1.14015e-005 -8.35959 6.42396 1.17522 1.42611e-005 4.70561e-006 3.00755 -8.02908 -4.95144 -0.697658 179.928 0.204072 -1.38692 180 7.01555e-015 178.958 178.687 5.47635 179.702 2.31802e-006 -1.13788e-006 0.0161669 -18.1894 67.3911 19.0526 8.13649 25.2327 -3.48774 -176.806 0.565012 2.24712 4.54188e-006 -4.6773e-006 -1.07983 -2.06982 -7.98725 0.17556 -3.99226e-006 -3.03929e-006 -0.145866 19.7008 69.2637 -20.6417 -8.13649 25.2327 3.48774 
50.8647 100.61 10.8684 -0.884862 -1.80552 2.72947 0.251288 -2.22419 -0.156535 0.497089 -0.444178 -0.327879 0.501159 1.20085 -0.336316 3.56021 29.8652 0.525304 -8.5158 -7.65928 0.38553 69.6596 -4.52988 -3.55028 105.471 13.4047 17.8177 -1.85234e-006 -1.05794e-005 1.12802e-006 10.5979 2.98799 -0.652372 -7.78306e-007 3.81726e-006 -3.00891 8.02889 -4.95147 0.697686 -59.6255 -3.31529 2.14845 -113.667 5.84506 -10.5849 3.07745e-006 2.48628e-006 1.14015e-005 -8.34604 6.4306 1.17599 1.42611e-005 4.70561e-006 3.00755 -8.02908 -4.95144 -0.697658 179.928 0.208269 -1.38849 180 7.01555e-015 178.958 178.688 5.47531 179.702 2.31802e-006 -1.13788e-006 0.0161669 -18.1894 67.3911 19.0526 8.13649 25.2327 -3.48774 -176.806 0.567951 2.24642 4.54188e-006 -4.6773e-006 -1.07983 -2.07137 -7.98336 0.175484 -3.99226e-006 -3.03929e-006 -0.145866 19.6992 69.262 -20.64 -8.13649 25.2327 3.48774 
50.8719 100.61 10.8693 -0.885532 -1.79922 2.72969 0.250801 -2.2264 -0.15628 0.496037 -0.447802 -0.328176 0.500108 1.19723 -0.336593 3.56285 29.8581 0.52823 -8.51985 -7.64623 0.389506 69.6534 -4.52882 -3.5494 105.482 13.3764 17.8405 -1.85234e-006 -1.05794e-005 1.12802e-006 10.5828 3.01723 -0.656348 -7.78306e-007 3.81726e-006 -3.00891 8.02889 -4.95147 0.697686 -59.6167 -3.32336 2.15269 -113.677 5.81839 -10.6085 3.07745e-006 2.48628e-006 1.14015e-005 -8.33257 6.43745 1.1768 1.42611e-005 4.70561e-006 3.00755 -8.02908 -4.95144 -0.697658 179.929 0.212654 -1.39008 180 7.01555e-015 178.958 178.689 5.47425 179.702 2.31802e-006 -1.13788e-006 0.0161669 -18.1894 67.3911 19.0526 8.13649 25.2327 -3.48774 -176.805 0.570873 2.24565 4.54188e-006 -4.6773e-006 -1.07983 -2.07299 -7.97918 0.17541 -3.99226e-006 -3.03929e-006 -0.145866 19.6975 69.2602 -20.6381 -8.13649 25.2327 3.48774 
50.8734 100.61 10.8712 -0.886231 -1.79284 2.72987 0.250307 -2.22863 -0.156023 0.494977 -0.451447 -0.328489 0.499048 1.19358 -0.336886 3.56568 29.8511 0.531139 -8.52411 -7.63322 0.393493 69.6472 -4.52774 -3.54851 105.493 13.3484 17.863 -1.85234e-006 -1.05794e-005 1.12802e-006 10.5677 3.04621 -0.660307 -7.78306e-007 3.81726e-006 -3.00891 8.02889 -4.95147 0.697686 -59.6078 -3.33147 2.15694 -113.688 5.79168 -10.6321 3.07745e-006 2.48628e-006 1.14015e-005 -8.31916 6.44443 1.17762 1.42611e-005 4.70561e-006 3.00755 -8.02908 -4.95144 -0.697658 179.93 0.217146 -1.39169 180 7.01555e-015 178.958 178.691 5.47318 179.702 2.31802e-006 -1.13788e-006 0.0161669 -18.1894 67.3911 19.0526 8.13649 25.2327 -3.48774 -176.805 0.573784 2.24484 4.54188e-006 -4.6773e-006 -1.07983 -2.07463 -7.97483 0.175338 -3.99226e-006 -3.03929e-006 -0.145866 19.6956 69.2583 -20.6362 -8.13649 25.2327 3.48774 
50.8788 100.61 10.8749 -0.886937 -1.78645 2.73003 0.249811 -2.23087 -0.155765 0.493914 -0.455098 -0.328807 0.497986 1.18993 -0.337182 3.56855 29.844 0.534043 -8.52843 -7.62022 0.397483 69.6409 -4.52664 -3.54761 105.505 13.3204 17.8855 -1.85234e-006 -1.05794e-005 1.12802e-006 10.5526 3.07514 -0.664263 -7.78306e-007 3.81726e-006 -3.00891 8.02889 -4.95147 0.697686 -59.5989 -3.33958 2.16119 -113.699 5.76497 -10.6556 3.07745e-006 2.48628e-006 1.14015e-005 -8.30576 6.45144 1.17844 1.42611e-005 4.70561e-006 3.00755 -8.02908 -4.95144 -0.697658 179.93 0.221664 -1.39329 180 7.01555e-015 178.958 178.692 5.47211 179.702 2.31802e-006 -1.13788e-006 0.0161669 -18.1894 67.3911 19.0526 8.13649 25.2327 -3.48774 -176.805 0.576693 2.24401 4.54188e-006 -4.6773e-006 -1.07983 -2.07629 -7.97045 0.175266 -3.99226e-006 -3.03929e-006 -0.145866 19.6938 69.2564 -20.6342 -8.13649 25.2327 3.48774 
50.8813 100.608 10.8761 -0.887629 -1.7801 2.73022 0.249319 -2.23309 -0.155509 0.492855 -0.458738 -0.329116 0.496928 1.18629 -0.337471 3.57133 29.837 0.536955 -8.53264 -7.6072 0.401466 69.6347 -4.52556 -3.54673 105.516 13.2924 17.908 -1.85234e-006 -1.05794e-005 1.12802e-006 10.5376 3.10419 -0.668227 -7.78306e-007 3.81726e-006 -3.00891 8.02889 -4.95147 0.697686 -59.59 -3.34768 2.16544 -113.71 5.73827 -10.6791 3.07745e-006 2.48628e-006 1.14015e-005 -8.29234 6.45838 1.17926 1.42611e-005 4.70561e-006 3.00755 -8.02908 -4.95144 -0.697658 179.931 0.226129 -1.39489 180 7.01555e-015 178.958 178.693 5.47103 179.702 2.31802e-006 -1.13788e-006 0.0161669 -18.1894 67.3911 19.0525 8.13649 25.2327 -3.48774 -176.805 0.579607 2.24321 4.54188e-006 -4.6773e-006 -1.07983 -2.07792 -7.96614 0.175193 -3.99226e-006 -3.03929e-006 -0.145866 19.692 69.2545 -20.6323 -8.13649 25.2327 3.48774 
50.8814 100.608 10.8789 -0.888283 -1.77383 2.73046 0.248835 -2.23529 -0.155256 0.491808 -0.462351 -0.329405 0.495882 1.18268 -0.33774 3.57389 29.8299 0.539888 -8.53659 -7.59414 0.405435 69.6286 -4.52452 -3.54586 105.527 13.264 17.9309 -1.85234e-006 -1.05794e-005 1.12802e-006 10.5224 3.13355 -0.672214 -7.78306e-007 3.81726e-006 -3.00891 8.02889 -4.95147 0.697686 -59.5813 -3.35573 2.16967 -113.72 5.71163 -10.7029 3.07745e-006 2.48628e-006 1.14015e-005 -8.27885 6.46517 1.18005 1.42611e-005 4.70561e-006 3.00755 -8.02908 -4.95144 -0.697658 179.932 0.23046 -1.39648 180 7.01555e-015 178.958 178.694 5.46997 179.701 2.31802e-006 -1.13788e-006 0.0161669 -18.1894 67.3911 19.0525 8.13649 25.2327 -3.48774 -176.804 0.582533 2.24245 4.54188e-006 -4.6773e-006 -1.07983 -2.07952 -7.96204 0.175118 -3.99226e-006 -3.03929e-006 -0.145866 19.6903 69.2527 -20.6305 -8.13649 25.2327 3.48774 
50.885 100.609 10.8809 -0.888878 -1.76771 2.73077 0.248365 -2.23745 -0.155008 0.49078 -0.465921 -0.329662 0.494853 1.17911 -0.337977 3.57608 29.8229 0.542853 -8.5401 -7.581 0.409381 69.6226 -4.52354 -3.54504 105.538 13.2352 17.9542 -1.85234e-006 -1.05794e-005 1.12802e-006 10.507 3.16339 -0.676236 -7.78306e-007 3.81726e-006 -3.00891 8.02889 -4.95147 0.697686 -59.5729 -3.36371 2.17389 -113.73 5.68508 -10.7268 3.07745e-006 2.48628e-006 1.14015e-005 -8.26526 6.47171 1.18082 1.42611e-005 4.70561e-006 3.00755 -8.02908 -4.95144 -0.697658 179.932 0.234577 -1.39804 180 7.01555e-015 178.958 178.695 5.46894 179.701 2.31802e-006 -1.13788e-006 0.0161669 -18.1894 67.3911 19.0526 8.13649 25.2327 -3.48774 -176.804 0.58548 2.24179 4.54188e-006 -4.6773e-006 -1.07983 -2.08105 -7.95827 0.175041 -3.99226e-006 -3.03929e-006 -0.145866 19.6888 69.251 -20.6288 -8.13649 25.2327 3.48774 
50.8882 100.608 10.8864 -0.88939 -1.76179 2.7312 0.247913 -2.23955 -0.154769 0.489776 -0.469432 -0.329874 0.49385 1.1756 -0.33817 3.57779 29.8159 0.545862 -8.54301 -7.56777 0.413295 69.6168 -4.52264 -3.54426 105.549 13.2057 17.9782 -1.85234e-006 -1.05794e-005 1.12802e-006 10.4914 3.19391 -0.680305 -7.78306e-007 3.81726e-006 -3.00891 8.02889 -4.95147 0.697686 -59.5649 -3.3716 2.17807 -113.74 5.65864 -10.7511 3.07745e-006 2.48628e-006 1.14015e-005 -8.25152 6.4779 1.18153 1.42611e-005 4.70561e-006 3.00755 -8.02908 -4.95144 -0.697658 179.933 0.238398 -1.39957 180 7.01555e-015 178.958 178.697 5.46791 179.701 2.31802e-006 -1.13788e-006 0.0161669 -18.1894 67.3911 19.0526 8.13649 25.2327 -3.48774 -176.804 0.588454 2.24125 4.54188e-006 -4.6773e-006 -1.07983 -2.0825 -7.95495 0.17496 -3.99226e-006 -3.03929e-006 -0.145866 19.6874 69.2496 -20.6274 -8.13649 25.2327 3.48774 
